<svg xmlns="http://www.w3.org/2000/svg">
    <symbol x="0px" y="0px" viewBox="0 0 511.808 511.808" class="icon icon-cart" id="icon-cart">
        <g>
            <g>
                <path d="M477.511,491.424l-26.48-348.832c-0.624-8.336-7.584-14.784-15.952-14.784H76.391c-8.368,0-15.328,6.448-15.952,14.8
                    l-26.704,352c-0.336,4.432,1.2,8.816,4.224,12.08c3.024,3.264,7.28,5.12,11.728,5.12h412.112c0.096,0,0.208,0,0.32,0
                    c8.832,0,16-7.168,16-16.016C478.119,494.288,477.911,492.816,477.511,491.424z M66.935,479.808l24.288-320h329.024l24.288,320
                    H66.935z"/>
            </g>
        </g>
        <g>
            <g>
                <path d="M255.735,0c-70.576,0-128,57.44-128,128.032v63.776c0,8.832,7.168,16,16,16c8.832,0,16-7.168,16-16v-63.776
                    c0-52.96,43.056-96.032,96-96.032c52.944,0,96,43.072,96,96.032v63.776c0,8.832,7.168,16,16,16c8.832,0,16-7.168,16-16v-63.776
                    C383.735,57.44,326.311,0,255.735,0z"/>
            </g></g><g></g><g></g><g></g><g></g><g></g><g></g><g></g><g></g><g></g><g></g><g></g><g></g><g></g><g></g><g></g>
    </symbol>
	<symbol viewBox="0 0 1024 1024" class="icon icon-heart" id="icon-heart">
	    <path class="path1" d="M486.4 972.8c-4.283 0-8.566-1.074-12.434-3.222-4.808-2.67-119.088-66.624-235.122-171.376-68.643-61.97-123.467-125.363-162.944-188.418-50.365-80.443-75.901-160.715-75.901-238.584 0-148.218 120.582-268.8 268.8-268.8 50.173 0 103.462 18.805 150.051 52.952 27.251 19.973 50.442 44.043 67.549 69.606 17.107-25.565 40.299-49.634 67.55-69.606 46.589-34.147 99.878-52.952 150.050-52.952 148.218 0 268.8 120.582 268.8 268.8 0 77.869-25.538 158.141-75.901 238.584-39.478 63.054-94.301 126.446-162.944 188.418-116.034 104.754-230.314 168.706-235.122 171.376-3.867 2.149-8.15 3.222-12.434 3.222zM268.8 153.6c-119.986 0-217.6 97.614-217.6 217.6 0 155.624 120.302 297.077 221.224 388.338 90.131 81.504 181.44 138.658 213.976 158.042 32.536-19.384 123.845-76.538 213.976-158.042 100.922-91.261 221.224-232.714 221.224-388.338 0-119.986-97.616-217.6-217.6-217.6-87.187 0-171.856 71.725-193.314 136.096-3.485 10.453-13.267 17.504-24.286 17.504s-20.802-7.051-24.286-17.504c-21.456-64.371-106.125-136.096-193.314-136.096z"></path></symbol>
    <symbol viewBox="0 0 1024 1024" class="icon icon-user" id="icon-user">
        <path class="path1" d="M486.4 563.2c-155.275 0-281.6-126.325-281.6-281.6s126.325-281.6 281.6-281.6 281.6 126.325 281.6 281.6-126.325 281.6-281.6 281.6zM486.4 51.2c-127.043 0-230.4 103.357-230.4 230.4s103.357 230.4 230.4 230.4c127.042 0 230.4-103.357 230.4-230.4s-103.358-230.4-230.4-230.4z"></path>
        <path class="path2" d="M896 1024h-819.2c-42.347 0-76.8-34.451-76.8-76.8 0-3.485 0.712-86.285 62.72-168.96 36.094-48.126 85.514-86.36 146.883-113.634 74.957-33.314 168.085-50.206 276.797-50.206 108.71 0 201.838 16.893 276.797 50.206 61.37 27.275 110.789 65.507 146.883 113.634 62.008 82.675 62.72 165.475 62.72 168.96 0 42.349-34.451 76.8-76.8 76.8zM486.4 665.6c-178.52 0-310.267 48.789-381 141.093-53.011 69.174-54.195 139.904-54.2 140.61 0 14.013 11.485 25.498 25.6 25.498h819.2c14.115 0 25.6-11.485 25.6-25.6-0.006-0.603-1.189-71.333-54.198-140.507-70.734-92.304-202.483-141.093-381.002-141.093z"></path>
    </symbol>
    <symbol viewBox="0 0 1024 1024" class="icon icon-search" id="icon-search">
        <path class="path1" d="M966.070 981.101l-304.302-331.965c68.573-71.754 106.232-165.549 106.232-265.136 0-102.57-39.942-199-112.47-271.53s-168.96-112.47-271.53-112.47-199 39.942-271.53 112.47-112.47 168.96-112.47 271.53 39.942 199.002 112.47 271.53 168.96 112.47 271.53 112.47c88.362 0 172.152-29.667 240.043-84.248l304.285 331.947c5.050 5.507 11.954 8.301 18.878 8.301 6.179 0 12.378-2.226 17.293-6.728 10.421-9.555 11.126-25.749 1.571-36.171zM51.2 384c0-183.506 149.294-332.8 332.8-332.8s332.8 149.294 332.8 332.8-149.294 332.8-332.8 332.8-332.8-149.294-332.8-332.8z"></path></symbol>
    <symbol x="0px" y="0px" viewBox="0 0 612 612" class="icon icon-close" id="icon-close">
        <g><g><g><polygon points="612,36.004 576.521,0.603 306,270.608 35.478,0.603 0,36.004 270.522,306.011 0,575.997 35.478,611.397 306,341.411 576.521,611.397 612,575.997 341.459,306.011 "/>
        </g></g></g><g></g><g></g><g></g><g></g><g></g><g></g><g></g><g></g><g></g><g></g><g></g><g></g><g></g><g></g><g></g></symbol>
    <symbol x="0px" y="0px" viewBox="0 0 482.6 482.6" class="icon icon-phone" id="icon-phone">
        <g><path d="M98.339,320.8c47.6,56.9,104.9,101.7,170.3,133.4c24.9,11.8,58.2,25.8,95.3,28.2c2.3,0.1,4.5,0.2,6.8,0.2
                c24.9,0,44.9-8.6,61.2-26.3c0.1-0.1,0.3-0.3,0.4-0.5c5.8-7,12.4-13.3,19.3-20c4.7-4.5,9.5-9.2,14.1-14
                c21.3-22.2,21.3-50.4-0.2-71.9l-60.1-60.1c-10.2-10.6-22.4-16.2-35.2-16.2c-12.8,0-25.1,5.6-35.6,16.1l-35.8,35.8
                c-3.3-1.9-6.7-3.6-9.9-5.2c-4-2-7.7-3.9-11-6c-32.6-20.7-62.2-47.7-90.5-82.4c-14.3-18.1-23.9-33.3-30.6-48.8
                c9.4-8.5,18.2-17.4,26.7-26.1c3-3.1,6.1-6.2,9.2-9.3c10.8-10.8,16.6-23.3,16.6-36s-5.7-25.2-16.6-36l-29.8-29.8
                c-3.5-3.5-6.8-6.9-10.2-10.4c-6.6-6.8-13.5-13.8-20.3-20.1c-10.3-10.1-22.4-15.4-35.2-15.4c-12.7,0-24.9,5.3-35.6,15.5l-37.4,37.4
                c-13.6,13.6-21.3,30.1-22.9,49.2c-1.9,23.9,2.5,49.3,13.9,80C32.739,229.6,59.139,273.7,98.339,320.8z M25.739,104.2
                c1.2-13.3,6.3-24.4,15.9-34l37.2-37.2c5.8-5.6,12.2-8.5,18.4-8.5c6.1,0,12.3,2.9,18,8.7c6.7,6.2,13,12.7,19.8,19.6
                c3.4,3.5,6.9,7,10.4,10.6l29.8,29.8c6.2,6.2,9.4,12.5,9.4,18.7s-3.2,12.5-9.4,18.7c-3.1,3.1-6.2,6.3-9.3,9.4
                c-9.3,9.4-18,18.3-27.6,26.8c-0.2,0.2-0.3,0.3-0.5,0.5c-8.3,8.3-7,16.2-5,22.2c0.1,0.3,0.2,0.5,0.3,0.8
                c7.7,18.5,18.4,36.1,35.1,57.1c30,37,61.6,65.7,96.4,87.8c4.3,2.8,8.9,5,13.2,7.2c4,2,7.7,3.9,11,6c0.4,0.2,0.7,0.4,1.1,0.6
                c3.3,1.7,6.5,2.5,9.7,2.5c8,0,13.2-5.1,14.9-6.8l37.4-37.4c5.8-5.8,12.1-8.9,18.3-8.9c7.6,0,13.8,4.7,17.7,8.9l60.3,60.2
                c12,12,11.9,25-0.3,37.7c-4.2,4.5-8.6,8.8-13.3,13.3c-7,6.8-14.3,13.8-20.9,21.7c-11.5,12.4-25.2,18.2-42.9,18.2
                c-1.7,0-3.5-0.1-5.2-0.2c-32.8-2.1-63.3-14.9-86.2-25.8c-62.2-30.1-116.8-72.8-162.1-127c-37.3-44.9-62.4-86.7-79-131.5
                C28.039,146.4,24.139,124.3,25.739,104.2z"/>
        </g><g></g><g></g><g></g><g></g><g></g><g></g><g></g><g></g><g></g><g></g><g></g><g></g><g></g><g></g><g></g></symbol>
    <symbol x="0px" y="0px" viewBox="0 0 512 512" class="icon icon-email" id="icon-email">
        <g>
            <g>
                <g>
                    <path d="M486.4,59.733H25.6c-14.138,0-25.6,11.461-25.6,25.6v341.333c0,14.138,11.461,25.6,25.6,25.6h460.8
                        c14.138,0,25.6-11.461,25.6-25.6V85.333C512,71.195,500.539,59.733,486.4,59.733z M494.933,426.667
                        c0,4.713-3.82,8.533-8.533,8.533H25.6c-4.713,0-8.533-3.82-8.533-8.533V85.333c0-4.713,3.82-8.533,8.533-8.533h460.8
                        c4.713,0,8.533,3.82,8.533,8.533V426.667z"/>
                    <path d="M470.076,93.898c-2.255-0.197-4.496,0.51-6.229,1.966L266.982,261.239c-6.349,5.337-15.616,5.337-21.965,0L48.154,95.863
                        c-2.335-1.96-5.539-2.526-8.404-1.484c-2.865,1.042-4.957,3.534-5.487,6.537s0.582,6.06,2.917,8.02l196.864,165.367
                        c12.688,10.683,31.224,10.683,43.913,0L474.82,108.937c1.734-1.455,2.818-3.539,3.015-5.794c0.197-2.255-0.51-4.496-1.966-6.229
                        C474.415,95.179,472.331,94.095,470.076,93.898z"/>
                    <path d="M164.124,273.13c-3.021-0.674-6.169,0.34-8.229,2.65l-119.467,128c-2.162,2.214-2.956,5.426-2.074,8.392
                        c0.882,2.967,3.301,5.223,6.321,5.897c3.021,0.674,6.169-0.34,8.229-2.65l119.467-128c2.162-2.214,2.956-5.426,2.074-8.392
                        C169.563,276.061,167.145,273.804,164.124,273.13z"/>
                    <path d="M356.105,275.78c-2.059-2.31-5.208-3.324-8.229-2.65c-3.021,0.674-5.439,2.931-6.321,5.897
                        c-0.882,2.967-0.088,6.178,2.074,8.392l119.467,128c3.24,3.318,8.536,3.442,11.927,0.278c3.391-3.164,3.635-8.456,0.549-11.918
                        L356.105,275.78z"/>
                </g>
            </g></g><g></g><g></g><g></g><g></g><g></g><g></g><g></g><g></g><g></g><g></g><g></g><g></g><g></g><g></g><g></g>
    </symbol>
	<symbol viewBox="0 0 370.814 370.814" class="icon icon-chevron-left" id="icon-chevron-left">
		<g><g><polygon points="292.92,24.848 268.781,0 77.895,185.401 268.781,370.814 292.92,345.961 127.638,185.401"/></g></g><g></g><g></g><g></g><g></g><g></g><g></g><g></g><g></g><g></g><g></g><g></g><g></g><g></g><g></g><g></g>
	</symbol>
    <symbol viewBox="0 0 478.448 478.448" class="icon icon-chevron-right" id="icon-chevron-right">
        <g><g><polygon points="131.659,0 100.494,32.035 313.804,239.232 100.494,446.373 131.65,478.448 377.954,239.232"/></g></g><g></g><g></g><g></g><g></g><g></g><g></g><g></g><g></g><g></g><g></g><g></g><g></g><g></g><g></g><g></g>
    </symbol>
    <symbol viewBox="0 0 551.13 551.13" class="icon icon-chevron-down" id="icon-chevron-down">
        <path d="m275.565 361.679-223.897-223.896h-51.668l275.565 275.565 275.565-275.565h-51.668z"/>
    </symbol>
    <symbol viewBox="0 0 551.13 551.13" class="icon icon-chevron-up" id="icon-chevron-up">
        <path d="m275.565 189.451 223.897 223.897h51.668l-275.565-275.565-275.565 275.565h51.668z"/>
    </symbol>
    <symbol class="icon icon-saletag" id="icon-saletag">
        <path d="M10 3a1 1 0 1 1 0-2 1 1 0 0 1 0 2zm0-3H7a1 1 0 0 0-.71.29l-6 6a1 1 0 0 0 0 1.42l4 4a1 1 0 0 0 1.42 0c.19-.2 5.8-5.81 6-6A1 1 0 0 0 12 5V2a2 2 0 0 0-2-2z" fill="#231F20"/>
    </symbol>
    <symbol viewBox="0 0 341.4 341.4" class="icon icon-plus" id="icon-plus">
        <g><g><polygon points="192,149.4 192,0 149.4,0 149.4,149.4 0,149.4 0,192 149.4,192 149.4,341.4 192,341.4 192,192 341.4,192 
                341.4,149.4 "/></g></g><g></g><g></g><g></g><g></g><g></g><g></g><g></g><g></g><g></g><g></g><g></g><g></g><g></g><g></g><g></g>
    </symbol>
    <symbol viewBox="0 0 341.333 341.333" class="icon icon-minus" id="icon-minus">
        <g><g><rect y="149.333" width="341.333" height="42.667"/></g></g><g></g><g></g><g></g><g></g><g></g><g></g><g></g><g></g><g></g><g></g><g></g><g></g><g></g><g></g><g></g>
    </symbol>
    <symbol viewBox="0 0 48 48" class="icon icon-sidebar" id="icon-sidebar">
        <g>
            <path d="M6,48c-0.552,0-1-0.447-1-1v-7c0-0.553,0.448-1,1-1s1,0.447,1,1v7C7,47.553,6.552,48,6,48z"></path>
            <path d="M6,31c-0.552,0-1-0.447-1-1V1c0-0.553,0.448-1,1-1s1,0.447,1,1v29C7,30.553,6.552,31,6,31z"></path>
            <g>
                <path d="M6,41c-3.309,0-6-2.691-6-6s2.691-6,6-6s6,2.691,6,6S9.309,41,6,41z M6,31c-2.206,0-4,1.794-4,4s1.794,4,4,4s4-1.794,4-4 S8.206,31,6,31z"></path>
                <path d="M42,48c-0.552,0-1-0.447-1-1V26c0-0.553,0.448-1,1-1s1,0.447,1,1v21C43,47.553,42.552,48,42,48z"></path>
                <path d="M42,17c-0.552,0-1-0.447-1-1V1c0-0.553,0.448-1,1-1s1,0.447,1,1v15C43,16.553,42.552,17,42,17z"></path>
                <path d="M42,27c-3.309,0-6-2.691-6-6s2.691-6,6-6s6,2.691,6,6S45.309,27,42,27z M42,17c-2.206,0-4,1.794-4,4s1.794,4,4,4 s4-1.794,4-4S44.206,17,42,17z"></path>
                <path d="M24,48c-0.552,0-1-0.447-1-1V21c0-0.553,0.448-1,1-1s1,0.447,1,1v26C25,47.553,24.552,48,24,48z"></path>
                <path d="M24,12c-0.552,0-1-0.447-1-1V1c0-0.553,0.448-1,1-1s1,0.447,1,1v10C25,11.553,24.552,12,24,12z"></path>
                <path d="M24,22c-3.309,0-6-2.691-6-6s2.691-6,6-6c3.309,0,6,2.691,6,6S27.309,22,24,22z M24,12c-2.206,0-4,1.794-4,4s1.794,4,4,4 s4-1.794,4-4S26.206,12,24,12z"></path>
            </g>
        </g>
    </symbol>
    <symbol viewBox="0 0 14 14" class="icon icon-error" id="icon-error">
        <g fill="none" fill-rule="evenodd"><path d="M7 0a7 7 0 0 1 7 7 7 7 0 1 1-7-7z"/><path class="icon-error__symbol" d="M6.328 8.396l-.252-5.4h1.836l-.24 5.4H6.328zM6.04 10.16c0-.528.432-.972.96-.972s.972.444.972.972c0 .516-.444.96-.972.96a.97.97 0 0 1-.96-.96z" fill-rule="nonzero"/></g>
    </symbol>
    <symbol viewBox="0 0 512 512" x="0px" y="0px" class="icon icon-messenger" id="icon-messenger">
    <g>
        <g>
            <path d="M256,0C114.624,0,0,106.112,0,237.024c0,74.592,37.216,141.12,95.392,184.576V512l87.168-47.84
                c23.264,6.432,47.904,9.92,73.44,9.92c141.376,0,256-106.112,256-237.024S397.376,0,256,0z M281.44,319.2l-65.184-69.536
                L89.056,319.2l139.936-148.544l66.784,69.536l125.6-69.536L281.44,319.2z"/></g></g><g></g><g></g><g></g><g></g><g></g><g></g><g></g><g></g><g></g><g></g><g></g><g></g><g></g><g></g><g></g>
    </symbol>
    <symbol viewBox="0 0 301.219 301.219" x="0px" y="0px" class="icon icon-sort" id="icon-sort">
        <g>
        <path d="M159.365,23.736v-10c0-5.523-4.477-10-10-10H10c-5.523,0-10,4.477-10,10v10c0,5.523,4.477,10,10,10h139.365
            C154.888,33.736,159.365,29.259,159.365,23.736z"/>
        <path d="M130.586,66.736H10c-5.523,0-10,4.477-10,10v10c0,5.523,4.477,10,10,10h120.586c5.523,0,10-4.477,10-10v-10
            C140.586,71.213,136.109,66.736,130.586,66.736z"/>
        <path d="M111.805,129.736H10c-5.523,0-10,4.477-10,10v10c0,5.523,4.477,10,10,10h101.805c5.523,0,10-4.477,10-10v-10
            C121.805,134.213,117.328,129.736,111.805,129.736z"/>
        <path d="M93.025,199.736H10c-5.523,0-10,4.477-10,10v10c0,5.523,4.477,10,10,10h83.025c5.522,0,10-4.477,10-10v-10
            C103.025,204.213,98.548,199.736,93.025,199.736z"/>
        <path d="M74.244,262.736H10c-5.523,0-10,4.477-10,10v10c0,5.523,4.477,10,10,10h64.244c5.522,0,10-4.477,10-10v-10
            C84.244,267.213,79.767,262.736,74.244,262.736z"/>
        <path d="M298.29,216.877l-7.071-7.071c-1.875-1.875-4.419-2.929-7.071-2.929c-2.652,0-5.196,1.054-7.072,2.929l-34.393,34.393
            V18.736c0-5.523-4.477-10-10-10h-10c-5.523,0-10,4.477-10,10v225.462l-34.393-34.393c-1.876-1.875-4.419-2.929-7.071-2.929
            c-2.652,0-5.196,1.054-7.071,2.929l-7.072,7.071c-3.904,3.905-3.904,10.237,0,14.142l63.536,63.536
            c1.953,1.953,4.512,2.929,7.071,2.929c2.559,0,5.119-0.976,7.071-2.929l63.536-63.536
            C302.195,227.113,302.195,220.781,298.29,216.877z"/></g><g></g><g></g><g></g><g></g><g></g><g></g><g></g><g></g><g></g><g></g><g></g><g></g><g></g><g></g><g></g>
    </symbol>
    <symbol viewBox="0 0 247.46 247.46" x="0px" y="0px" class="icon icon-filter" id="icon-filter">
        <path d="M246.744,13.984c-1.238-2.626-3.881-4.301-6.784-4.301H7.5c-2.903,0-5.545,1.675-6.784,4.301
        c-1.238,2.626-0.85,5.73,0.997,7.97l89.361,108.384v99.94c0,2.595,1.341,5.005,3.545,6.373c1.208,0.749,2.579,1.127,3.955,1.127
        c1.137,0,2.278-0.259,3.33-0.78l50.208-24.885c2.551-1.264,4.165-3.863,4.169-6.71l0.098-75.062l89.366-108.388
        C247.593,19.714,247.982,16.609,246.744,13.984z M143.097,122.873c-1.105,1.34-1.711,3.023-1.713,4.761l-0.096,73.103
        l-35.213,17.453v-90.546c0-1.741-0.605-3.428-1.713-4.771L23.404,24.682h200.651L143.097,122.873z"/><g></g><g></g><g></g><g></g><g></g><g></g><g></g><g></g><g></g><g></g><g></g><g></g><g></g><g></g><g></g>
    </symbol>
    <symbol viewBox="0 0 384 512" class="icon icon-fire" id="icon-fire">
        <path d="M216 23.86c0-23.8-30.65-32.77-44.15-13.04C48 191.85 224 200 224 288c0 35.63-29.11 64.46-64.85 63.99-35.17-.45-63.15-29.77-63.15-64.94v-85.51c0-21.7-26.47-32.23-41.43-16.5C27.8 213.16 0 261.33 0 320c0 105.87 86.13 192 192 192s192-86.13 192-192c0-170.29-168-193-168-296.14z"></path>
    </symbol>
    <symbol viewBox="0 0 320 512" class="icon icon-sort-up" id="icon-sort-up">
        <path d="M279 224H41c-21.4 0-32.1-25.9-17-41L143 64c9.4-9.4 24.6-9.4 33.9 0l119 119c15.2 15.1 4.5 41-16.9 41z"></path>
    </symbol>
    <symbol viewBox="0 0 320 512" class="icon icon-sort-down" id="icon-sort-down">
        <path d="M41 288h238c21.4 0 32.1 25.9 17 41L177 448c-9.4 9.4-24.6 9.4-33.9 0L24 329c-15.1-15.1-4.4-41 17-41z"></path>
    </symbol>
    <symbol viewBox="0 0 576 512" class="icon icon-eye" id="icon-eye">
        <path d="M288 144a110.94 110.94 0 0 0-31.24 5 55.4 55.4 0 0 1 7.24 27 56 56 0 0 1-56 56 55.4 55.4 0 0 1-27-7.24A111.71 111.71 0 1 0 288 144zm284.52 97.4C518.29 135.59 410.93 64 288 64S57.68 135.64 3.48 241.41a32.35 32.35 0 0 0 0 29.19C57.71 376.41 165.07 448 288 448s230.32-71.64 284.52-177.41a32.35 32.35 0 0 0 0-29.19zM288 400c-98.65 0-189.09-55-237.93-144C98.91 167 189.34 112 288 112s189.09 55 237.93 144C477.1 345 386.66 400 288 400z"></path>
    </symbol>
    <symbol viewBox="0 0 512 512" class="icon icon-shield" id="icon-shield">
        <path d="M466.5 83.7l-192-80a48.15 48.15 0 0 0-36.9 0l-192 80C27.7 91.1 16 108.6 16 128c0 198.5 114.5 335.7 221.5 380.3 11.8 4.9 25.1 4.9 36.9 0C360.1 472.6 496 349.3 496 128c0-19.4-11.7-36.9-29.5-44.3zM256.1 446.3l-.1-381 175.9 73.3c-3.3 151.4-82.1 261.1-175.8 307.7z"></path>
    </symbol>
    <symbol viewBox="0 0 576 512" class="icon icon-edit" id="icon-edit">
        <path d="M402.3 344.9l32-32c5-5 13.7-1.5 13.7 5.7V464c0 26.5-21.5 48-48 48H48c-26.5 0-48-21.5-48-48V112c0-26.5 21.5-48 48-48h273.5c7.1 0 10.7 8.6 5.7 13.7l-32 32c-1.5 1.5-3.5 2.3-5.7 2.3H48v352h352V350.5c0-2.1.8-4.1 2.3-5.6zm156.6-201.8L296.3 405.7l-90.4 10c-26.2 2.9-48.5-19.2-45.6-45.6l10-90.4L432.9 17.1c22.9-22.9 59.9-22.9 82.7 0l43.2 43.2c22.9 22.9 22.9 60 .1 82.8zM460.1 174L402 115.9 216.2 301.8l-7.3 65.3 65.3-7.3L460.1 174zm64.8-79.7l-43.2-43.2c-4.1-4.1-10.8-4.1-14.8 0L436 82l58.1 58.1 30.9-30.9c4-4.2 4-10.8-.1-14.9z"></path>
    </symbol>
    <symbol viewBox="0 0 20 20" class="icon icon-spinner" id="icon-spinner">
        <path d="M7.229 1.173a9.25 9.25 0 1 0 11.655 11.412 1.25 1.25 0 1 0-2.4-.698 6.75 6.75 0 1 1-8.506-8.329 1.25 1.25 0 1 0-.75-2.385z" fill="#919EAB"/>
    </symbol>
    <symbol viewBox="0 0 512 512" class="icon icon-play" id="icon-play">
        <g><g><path d="M256,0C114.608,0,0,114.608,0,256s114.608,256,256,256s256-114.608,256-256S397.392,0,256,0z M256,496
                    C123.664,496,16,388.336,16,256S123.664,16,256,16s240,107.664,240,240S388.336,496,256,496z"/></g></g>
        <g><g><polygon points="189.776,141.328 189.776,370.992 388.672,256.16"/></g></g><g></g><g></g><g></g><g></g><g></g><g></g><g></g><g></g><g></g><g></g><g></g><g></g><g></g><g></g><g></g>
    </symbol>
    <symbol viewBox="0 0 1000 1000" class="icon icon-arrow-left" id="icon-arrow-left">
        <g><g transform="matrix(1 0 0 -1 0 1008)"><path d="M10,508l233.8,233.8l27-27L81.9,526H990v-36H81.9l188.8-188.8l-27-27L10,508z"/></g></g>
    </symbol>
    <symbol viewBox="0 0 1000 1000" class="icon icon-arrow-right" id="icon-arrow-right">
        <g><g transform="matrix(1 0 0 -1 0 1008)"><path d="M756.2,741.8L990,508L756.2,274.2l-27,27L918.1,490H10v36h908.1L729.3,714.8L756.2,741.8z"/></g></g>
    </symbol>
    <symbol viewBox="0 0 512 512" class="icon icon-question" id="icon-question">
        <g><g><g><circle cx="256" cy="378.5" r="25"/>
            <path d="M256,0C114.516,0,0,114.497,0,256c0,141.484,114.497,256,256,256c141.484,0,256-114.497,256-256
                C512,114.516,397.503,0,256,0z M256,472c-119.377,0-216-96.607-216-216c0-119.377,96.607-216,216-216
                c119.377,0,216,96.607,216,216C472,375.377,375.393,472,256,472z"/>
            <path d="M256,128.5c-44.112,0-80,35.888-80,80c0,11.046,8.954,20,20,20s20-8.954,20-20c0-22.056,17.944-40,40-40
                c22.056,0,40,17.944,40,40c0,22.056-17.944,40-40,40c-11.046,0-20,8.954-20,20v50c0,11.046,8.954,20,20,20
                c11.046,0,20-8.954,20-20v-32.531c34.466-8.903,60-40.26,60-77.469C336,164.388,300.112,128.5,256,128.5z"/>
        </g></g></g><g></g><g></g><g></g><g></g><g></g><g></g><g></g><g></g><g></g><g></g><g></g><g></g><g></g><g></g><g></g>
    </symbol>
    <symbol viewBox="0 0 22 24" class="icon icon-double-arrow-right" id="icon-double-arrow-right">
        <path d="M1.821 22.676c-.134.151-.301.227-.485.227s-.351-.076-.485-.227a.849.849 0 0 1 0-1.097l8.529-9.647L.851 2.285c-.268-.303-.268-.794 0-1.097s.702-.303.97 0l9.031 10.196a.849.849 0 0 1 0 1.097L1.821 22.677z"></path>
        <path d="M12.061 22.676c-.134.151-.301.227-.485.227s-.351-.076-.485-.227a.849.849 0 0 1 0-1.097l8.529-9.647-8.529-9.647c-.268-.303-.268-.794 0-1.097s.702-.303.97 0l9.031 10.196a.849.849 0 0 1 0 1.097l-9.031 10.196z"></path>
    </symbol>
    <symbol viewBox="0 0 25 24" class="icon icon-expand" id="icon-expand">
        <path d="M6.836 2.266a.632.632 0 0 0 0-1.264H1.635a.632.632 0 0 0-.632.632v5.201a.632.632 0 0 0 1.264 0v-4.57h4.57z"></path>
        <path d="M1.188 2.081L13.077 13.97a.63.63 0 1 0 .893-.893L2.081 1.188a.63.63 0 1 0-.893.893z"></path>
        <path d="M10.106 2.8h11.368a3.158 3.158 0 0 1 3.158 3.158v14.253a3.158 3.158 0 0 1-3.158 3.158H7.173a3.158 3.158 0 0 1-3.158-3.158v-7.98h1.263v7.98c0 1.046.848 1.895 1.895 1.895h14.301a1.895 1.895 0 0 0 1.895-1.895V5.958a1.895 1.895 0 0 0-1.895-1.895H10.106V2.8z"></path>
    </symbol>
    <symbol viewBox="0 0 512 512" x="0px" y="0px" class="icon icon-nopicture" id="icon-nopicture">
        <g transform="translate(1 1)"><g><g>
            <path d="M255-1C114.2-1-1,114.2-1,255s115.2,256,256,256s256-115.2,256-256S395.8-1,255-1z M255,16.067
            c63.054,0,120.598,24.764,163.413,65.033l-65.336,64.802L334.36,97.987c-0.853-2.56-4.267-5.12-7.68-5.12H185.027
            c-3.413,0-5.973,1.707-7.68,5.12L156.013,152.6h-48.64c-17.067,0-30.72,13.653-30.72,30.72v168.96
            c0,17.067,13.653,30.72,30.72,30.72h6.653l-34.26,33.981C40.285,374.319,16.067,317.354,16.067,255
            C16.067,123.587,123.587,16.067,255,16.067z M314.733,255c0,33.28-26.453,59.733-59.733,59.733
            c-13.563,0-25.99-4.396-35.957-11.854l84.125-83.438C310.449,229.34,314.733,241.616,314.733,255z M195.267,255
            c0-33.28,26.453-59.733,59.733-59.733c13.665,0,26.174,4.467,36.179,12.028l-84.183,83.495
            C199.613,280.852,195.267,268.487,195.267,255z M303.374,195.199C290.201,184.558,273.399,178.2,255,178.2
            c-42.667,0-76.8,34.133-76.8,76.8c0,18.17,6.206,34.779,16.61,47.877l-63.576,63.057H106.52c-7.68,0-13.653-5.973-13.653-13.653
            V183.32c0-7.68,5.973-13.653,13.653-13.653h54.613c3.413,0,6.827-2.56,7.68-5.12l21.333-54.613h129.707l19.404,49.675
            L303.374,195.199z M206.848,314.974C219.987,325.509,236.703,331.8,255,331.8c42.667,0,76.8-34.133,76.8-76.8
            c0-18.068-6.138-34.592-16.436-47.655l37.988-37.678h49.274c7.68,0,13.653,5.973,13.653,13.653v168.96
            c0,7.68-5.973,13.653-13.653,13.653H155.469L206.848,314.974z M255,493.933c-62.954,0-120.415-24.686-163.208-64.843L138.262,383
            H403.48c17.067,0,30.72-13.653,31.573-30.72V183.32c0-17.067-13.653-30.72-30.72-30.72H370.56l59.865-59.376
            c39.368,42.639,63.509,99.521,63.509,161.776C493.933,386.413,386.413,493.933,255,493.933z"/>
            <path d="M383,186.733c-9.387,0-17.067,7.68-17.067,17.067c0,9.387,7.68,17.067,17.067,17.067s17.067-7.68,17.067-17.067
            C400.067,194.413,392.387,186.733,383,186.733z"/></g></g></g><g></g><g></g><g></g><g></g><g></g><g></g><g></g><g></g><g></g><g></g><g></g><g></g><g></g><g></g><g></g>
    </symbol>
    <symbol viewBox="0 0 467.968 467.968" class="icon icon-camera" id="icon-camera">
        <g><g><path d="M264.704,96.512H51.2c-28.16,0-51.2,23.04-51.2,51.2v172.544c0,28.16,23.04,51.2,51.2,51.2h213.504
                c28.16,0,51.2-23.04,51.2-51.2V147.712C315.904,119.04,292.864,96.512,264.704,96.512z"/></g></g>
        <g><g><path d="M430.08,124.672c-3.072,0.512-6.144,2.048-8.704,3.584l-79.872,46.08V293.12l80.384,46.08
                c14.848,8.704,33.28,3.584,41.984-11.264c2.56-4.608,4.096-9.728,4.096-15.36V154.368
                C467.968,135.424,450.048,120.064,430.08,124.672z"/>
        </g></g><g></g><g></g><g></g><g></g><g></g><g></g><g></g><g></g><g></g><g></g><g></g><g></g><g></g><g></g><g></g>
    </symbol>
</svg>